<svg width="67" height="67" viewBox="0 0 67 67" fill="none" xmlns="http://www.w3.org/2000/svg">
<g filter="url(#filter0_f)">
<path d="M51.4505 20.2742L46.5131 15.3368L40.2907 12.168L33.3935 11.0742L26.4963 12.168L20.2739 15.3368L15.3365 20.2742L12.1676 26.4966L11.0739 33.3938L12.1676 40.291L15.3365 46.5134L20.2739 51.4508L26.4963 54.6225L33.3935 55.7163L40.2907 54.6225L46.5131 51.4508L51.4505 46.5134L54.6221 40.291L55.7159 33.3938L54.6221 26.4966L51.4505 20.2742Z" stroke="white" stroke-width="1.3538" stroke-miterlimit="10"/>
</g>
<path d="M51.4505 20.2742L46.5131 15.3368L40.2907 12.168L33.3935 11.0742L26.4963 12.168L20.2739 15.3368L15.3365 20.2742L12.1676 26.4966L11.0739 33.3938L12.1676 40.291L15.3365 46.5134L20.2739 51.4508L26.4963 54.6225L33.3935 55.7163L40.2907 54.6225L46.5131 51.4508L51.4505 46.5134L54.6221 40.291L55.7159 33.3938L54.6221 26.4966L51.4505 20.2742Z" stroke="white" stroke-width="0.562349" stroke-miterlimit="10"/>
<path d="M46.513 15.3369L33.3934 33.3939" stroke="white" stroke-width="0.281174" stroke-miterlimit="10"/>
<path d="M20.2737 15.3369L33.3933 33.3939" stroke="white" stroke-width="0.281174" stroke-miterlimit="10"/>
<path d="M12.1676 40.2908L33.3934 33.3936" stroke="white" stroke-width="0.281174" stroke-miterlimit="10"/>
<path d="M33.3934 55.7132V33.3936" stroke="white" stroke-width="0.281174" stroke-miterlimit="10"/>
<path d="M54.6221 40.2908L33.3934 33.3936" stroke="white" stroke-width="0.281174" stroke-miterlimit="10"/>
<path d="M33.3935 39.6222L39.315 35.3203L37.0543 28.3584H29.7326L27.4719 35.3203L33.3935 39.6222Z" stroke="white" stroke-width="0.281174" stroke-miterlimit="10"/>
<path d="M26.4962 12.168L33.3934 21.8544L40.2906 12.168" stroke="white" stroke-width="0.281174" stroke-miterlimit="10"/>
<path d="M33.3934 11.0742V13.6301L29.7943 16.7989H36.9924L33.3934 13.6301H27.5393L33.3934 11.0742Z" stroke="white" stroke-width="0.281174" stroke-miterlimit="10"/>
<path d="M33.3934 11.0742L39.2503 13.6301H33.3934" stroke="white" stroke-width="0.281174" stroke-miterlimit="10"/>
<path d="M29.7324 28.3581L33.3933 21.8545L37.0542 28.3581" stroke="white" stroke-width="0.281174" stroke-miterlimit="10"/>
<path d="M33.3933 21.8542L25.5401 22.5825L29.7942 16.7987L22.3994 18.2636L27.5392 13.6299L20.2737 15.3366" stroke="white" stroke-width="0.281174" stroke-miterlimit="10"/>
<path d="M33.3934 21.8542L41.2494 22.5825L36.9925 16.7987L44.3873 18.2636L39.2503 13.6299L46.513 15.3366" stroke="white" stroke-width="0.281174" stroke-miterlimit="10"/>
<path d="M11.0737 33.394L22.4191 29.8287L15.3363 20.2744" stroke="white" stroke-width="0.281174" stroke-miterlimit="10"/>
<path d="M12.1647 26.4971L14.594 27.2872L16.4976 31.6903L18.7217 24.8438L14.594 27.2872L12.7861 32.8544L12.1647 26.4971Z" stroke="white" stroke-width="0.281174" stroke-miterlimit="10"/>
<path d="M12.1647 26.4968L16.4048 21.7168L14.594 27.2869" stroke="white" stroke-width="0.281174" stroke-miterlimit="10"/>
<path d="M27.4718 35.3203L22.4191 29.8289L29.7324 28.3584" stroke="white" stroke-width="0.281174" stroke-miterlimit="10"/>
<path d="M22.4191 29.8281L20.6843 37.5239L16.4976 31.6895L15.6062 39.1744L12.7861 32.8536L12.1647 40.2906" stroke="white" stroke-width="0.281174" stroke-miterlimit="10"/>
<path d="M22.4164 29.8286L25.5374 22.5828L18.7218 24.8434L22.3995 18.2611L16.4049 21.7168L20.2739 15.3369" stroke="white" stroke-width="0.281174" stroke-miterlimit="10"/>
<path d="M26.4933 54.6222L26.6086 42.7285L15.3335 46.5131" stroke="white" stroke-width="0.281174" stroke-miterlimit="10"/>
<path d="M20.2737 51.4504L21.7723 49.3838L26.5495 48.9339L20.7264 44.7051L21.7723 49.3838L26.5129 52.8254L20.2737 51.4504Z" stroke="white" stroke-width="0.281174" stroke-miterlimit="10"/>
<path d="M20.2738 51.4506L17.0347 45.9424L21.7725 49.384" stroke="white" stroke-width="0.281174" stroke-miterlimit="10"/>
<path d="M33.3935 39.6223L26.6088 42.7293L27.472 35.3203" stroke="white" stroke-width="0.281174" stroke-miterlimit="10"/>
<path d="M26.6087 42.7285L33.3934 46.7577L26.5496 48.934L33.3934 52.0972L26.5131 52.8255L33.3934 55.7131" stroke="white" stroke-width="0.281174" stroke-miterlimit="10"/>
<path d="M26.6086 42.7318L20.6843 37.5244L20.7264 44.7056L15.6034 39.1749L17.0374 45.9428L12.1647 40.2912" stroke="white" stroke-width="0.281174" stroke-miterlimit="10"/>
<path d="M51.4476 46.5161L40.1753 42.7314L40.2906 54.6223" stroke="white" stroke-width="0.281174" stroke-miterlimit="10"/>
<path d="M46.5102 51.4533L45.0087 49.3866L46.0575 44.7051L40.2344 48.9367L45.0087 49.3866L49.7465 45.9451L46.5102 51.4533Z" stroke="white" stroke-width="0.281174" stroke-miterlimit="10"/>
<path d="M46.5103 51.4533L40.271 52.8283L45.0088 49.3867" stroke="white" stroke-width="0.281174" stroke-miterlimit="10"/>
<path d="M39.315 35.3203L40.1754 42.7321L33.3934 39.6223" stroke="white" stroke-width="0.281174" stroke-miterlimit="10"/>
<path d="M40.1753 42.7318L46.1024 37.5244L46.0575 44.7056L51.1805 39.1749L49.7465 45.9456L54.6192 40.294" stroke="white" stroke-width="0.281174" stroke-miterlimit="10"/>
<path d="M40.1754 42.7314L33.3934 46.7579L40.2344 48.937L33.3934 52.1002L40.2738 52.8284L33.3934 55.7161" stroke="white" stroke-width="0.281174" stroke-miterlimit="10"/>
<path d="M51.4505 20.2773L44.3677 29.8316L55.7131 33.3969" stroke="white" stroke-width="0.281174" stroke-miterlimit="10"/>
<path d="M54.622 26.4997L52.1927 27.2898L48.0651 24.8436L50.2891 31.6902L52.1927 27.2898L50.3819 21.7197L54.622 26.4997Z" stroke="white" stroke-width="0.281174" stroke-miterlimit="10"/>
<path d="M54.622 26.499L54.0006 32.8564L52.1926 27.2891" stroke="white" stroke-width="0.281174" stroke-miterlimit="10"/>
<path d="M37.0543 28.3584L44.3677 29.8318L39.315 35.3203" stroke="white" stroke-width="0.281174" stroke-miterlimit="10"/>
<path d="M44.3677 29.8316L41.2495 22.5857L48.0652 24.8435L44.3874 18.2641L50.3821 21.7197L46.5131 15.3398" stroke="white" stroke-width="0.281174" stroke-miterlimit="10"/>
<path d="M44.3677 29.8281L46.1025 37.5239L50.2892 31.6895L51.1833 39.1744L54.0007 32.8564L54.6193 40.2934" stroke="white" stroke-width="0.281174" stroke-miterlimit="10"/>
<defs>
<filter id="filter0_f" x="0.235082" y="0.235204" width="66.3197" height="66.3197" filterUnits="userSpaceOnUse" color-interpolation-filters="sRGB">
<feFlood flood-opacity="0" result="BackgroundImageFix"/>
<feBlend mode="normal" in="SourceGraphic" in2="BackgroundImageFix" result="shape"/>
<feGaussianBlur stdDeviation="5.07673" result="effect1_foregroundBlur"/>
</filter>
</defs>
</svg>
